<?xml version="1.0" encoding="utf-8"?>
<!-- Generator: Adobe Illustrator 18.0.0, SVG Export Plug-In . SVG Version: 6.00 Build 0)  -->
<!DOCTYPE svg PUBLIC "-//W3C//DTD SVG 1.1//EN" "http://www.w3.org/Graphics/SVG/1.1/DTD/svg11.dtd">
<svg version="1.1" id="Layer_1" xmlns="http://www.w3.org/2000/svg" xmlns:xlink="http://www.w3.org/1999/xlink" x="0px" y="0px"
	 viewBox="0 0 239.9 239.9" enable-background="new 0 0 239.9 239.9" xml:space="preserve">
<g id="Layer_1_1_">
</g>
<g id="Layer_2">
	<path fill="#FFFFFF" d="M101,0c15,7.7,11,13.4,0.4,13.4c-9.3,0-17.9,0-26.4-3.2c2.4,6.1,0.4,9.3-10.1,14.2
		c-9.3,4.1-15,13.8-21.5,21.5c-13,15.4-28.8,32.5-35.7,51.5c-1.6,5.3-0.4,9.7,0,13.8c0.4,6.9-5.3,17-7.7,23.5
		c10.6-1.2,5.7,15,5.7,23.5c0,5.3,0,11,0,16.2c2.8-1.2,4.5,0,4.5,3.2c2,11,2.4,19.5,11.4,27.2c3.2,2.8,17,13.8,21.1,11
		c-2.4-7.3-4.9-15-7.3-22.3c6.1-6.1,11,2.8,17,3.7c0-4.9,0.4-9.3,0.8-14.2c14.6,9.3,32.5,21.5,8.9,32.5c-5.3,2.4-20.3,4.1-21.9,11
		c-1.2,6.5,7.7,7.7,13.8,7.3c11-0.8,21.9,2,34.5,0c6.9-0.4,15.4-1.6,21.9-2.8c15.8-3.2,3.7-22.3,0.4-30.4c3.7,0,9.7,1.6,11.8-2.4
		c2.8-5.3,5.7,2.4,9.7,0.4c-2.8,0.8-7.7,16.2-8.9,19.1c-4.5,12.2,8.1,13.8,16.2,14.6c16.6,2,32.5,2.8,48.7,1.6
		c5.3-0.4,13-2.8,12.2-8.1c-1.2-7.7-13-7.3-18.3-9.7c-21.1-9.7-16.6-24.3,3.7-32.5v13c8.9-6.9,9.7-7.3,20.7-3.7
		c-8.9,5.3-7.3,15-11.8,23.5c20.3-6.9,29.6-18.3,34.1-39c1.2-6.1,6.9-2.8,6.9-10.1s-3.7-42.6,4.1-33.7c1.2-10.1-8.1-21.1-6.1-32.1
		c1.6-8.9-10.6-26.4-15.4-32.9c-11.8-15.8-36.5-52.3-58.4-54.4c-16.2-1.6-19.5-4.9-26.8-7.7C125.4,6.1,109.2,1.2,101,0z
		 M186.3,176.1c-0.4,0-0.8-0.4-1.2-0.4c0.8-6.9,2-13.8,2.8-20.7c1.6,0.8,2.8,1.2,3.7,1.6c0.4-0.4,0.8-0.4,0.8-0.8
		c2.8-11.4,9.3-22.3,3.7-34.5c-0.4-0.8-0.8-2-0.8-3.2c-0.4-3.2,0.8-5.7,4.5-7.3c0.4,2.4,1.2,4.9,1.2,6.9c0,2-1.6,3.7-1.2,5.7
		c3.2,13-0.8,25.2-4.5,37.3C193.2,165.6,189.1,170.4,186.3,176.1z M129,41.8c0-4.1,4.9-6.9,11.8-7.3c6.5,0,11.8,3.2,11.8,6.9
		c0,4.1-5.3,7.7-11.8,7.7C134.3,49.1,129,45.9,129,41.8z M101,34.5c6.9,0,12.6,3.2,12.6,6.9c0,4.1-5.3,7.3-11.8,7.7
		c-7.3,0-13-3.2-13-7.3C88.9,37.7,94.1,34.5,101,34.5z M94.5,75.5c0-0.4,0-1.2,0-1.6c4.5,0.4,8.5,0.4,13,1.2
		c6.9,0.8,13.4,0.4,19.5-3.7c1.6-1.2,4.5-0.8,7.7-1.2c1.2-2.4,2.8-6.1,4.5-10.1c3.2,6.9,4.1,14.6,13.8,15
		C133.5,81.2,114,82,94.5,75.5z M56,172.1c-0.4,0-0.8,0.4-1.2,0.8c-1.6-6.5-8.9-8.1-10.1-15.4c-0.8-6.1-2.4-12.2-3.7-18.3
		c0.4,0,1.2-0.4,2-0.4c0.8,1.6,1.2,3.7,2,5.3c2,4.9,2.4,11,8.9,13c0.4,0,0.8,1.2,0.8,2C55.2,163.1,55.6,167.6,56,172.1z M44.6,105.1
		c0.4,0,1.2,0.4,1.6,0.4c1.6,7.7,0.4,15-2,22.3c0,0.4-1.6,1.2-2,1.2c-0.8-0.4-1.2-1.6-1.2-2c0.4-2.4,0.8-4.9,1.6-7.3
		c-1.2-0.4-2.4-0.8-4.1-1.6C40.2,113.6,42.6,109.6,44.6,105.1z M93.3,143.2c33.3-8.1,33.3-18.7,51.9-2.8
		C133.9,130.7,112.4,151.4,93.3,143.2C103.1,147.3,102.3,142.8,93.3,143.2z"/>
</g>
</svg>
