<?xml version="1.0" encoding="utf-8"?>
<!-- Generator: Adobe Illustrator 18.0.0, SVG Export Plug-In . SVG Version: 6.00 Build 0)  -->
<!DOCTYPE svg PUBLIC "-//W3C//DTD SVG 1.1//EN" "http://www.w3.org/Graphics/SVG/1.1/DTD/svg11.dtd">
<svg version="1.1" xmlns="http://www.w3.org/2000/svg" xmlns:xlink="http://www.w3.org/1999/xlink" x="0px" y="0px"
	 viewBox="391.7 604.9 146.7 60.7" enable-background="new 391.7 604.9 146.7 60.7" xml:space="preserve">
<g id="Layer_1">
</g>
<g id="Layer_2">
	<path fill="#FFFFFF" d="M417.5,605.9c3.7,1.9,2.7,3.3,0.1,3.3c-2.3,0-4.4,0-6.5-0.8c0.6,1.5,0.1,2.3-2.5,3.5
		c-2.3,1-3.7,3.4-5.3,5.3c-3.2,3.8-7.1,8-8.8,12.7c-0.4,1.3-0.1,2.4,0,3.4c0.1,1.7-1.3,4.2-1.9,5.8c2.6-0.3,1.4,3.7,1.4,5.8
		c0,1.3,0,2.7,0,4c0.7-0.3,1.1,0,1.1,0.8c0.5,2.7,0.6,4.8,2.8,6.7c0.8,0.7,4.2,3.4,5.2,2.7c-0.6-1.8-1.2-3.7-1.8-5.5
		c1.5-1.5,2.7,0.7,4.2,0.9c0-1.2,0.1-2.3,0.2-3.5c3.6,2.3,8,5.3,2.2,8c-1.3,0.6-5,1-5.4,2.7c-0.3,1.6,1.9,1.9,3.4,1.8
		c2.7-0.2,5.4,0.5,8.5,0c1.7-0.1,3.8-0.4,5.4-0.7c3.9-0.8,0.9-5.5,0.1-7.5c0.9,0,2.4,0.4,2.9-0.6c0.7-1.3,1.4,0.6,2.4,0.1
		c-0.7,0.2-1.9,4-2.2,4.7c-1.1,3,2,3.4,4,3.6c4.1,0.5,8,0.7,12,0.4c1.3-0.1,3.2-0.7,3-2c-0.3-1.9-3.2-1.8-4.5-2.4
		c-5.2-2.4-4.1-6,0.9-8v3.2c2.2-1.7,2.4-1.8,5.1-0.9c-2.2,1.3-1.8,3.7-2.9,5.8c5-1.7,7.3-4.5,8.4-9.6c0.3-1.5,1.7-0.7,1.7-2.5
		c0-1.8-0.9-10.5,1-8.3c0.3-2.5-2-5.2-1.5-7.9c0.4-2.2-2.6-6.5-3.8-8.1c-2.9-3.9-9-12.9-14.4-13.4c-4-0.4-4.8-1.2-6.6-1.9
		C423.5,607.4,419.5,606.2,417.5,605.9z M438.5,649.3c-0.1,0-0.2-0.1-0.3-0.1c0.2-1.7,0.5-3.4,0.7-5.1c0.4,0.2,0.7,0.3,0.9,0.4
		c0.1-0.1,0.2-0.1,0.2-0.2c0.7-2.8,2.3-5.5,0.9-8.5c-0.1-0.2-0.2-0.5-0.2-0.8c-0.1-0.8,0.2-1.4,1.1-1.8c0.1,0.6,0.3,1.2,0.3,1.7
		c0,0.5-0.4,0.9-0.3,1.4c0.8,3.2-0.2,6.2-1.1,9.2C440.2,646.7,439.2,647.9,438.5,649.3z M424.4,616.2c0-1,1.2-1.7,2.9-1.8
		c1.6,0,2.9,0.8,2.9,1.7c0,1-1.3,1.9-2.9,1.9C425.7,618,424.4,617.2,424.4,616.2z M417.5,614.4c1.7,0,3.1,0.8,3.1,1.7
		c0,1-1.3,1.8-2.9,1.9c-1.8,0-3.2-0.8-3.2-1.8C414.5,615.2,415.8,614.4,417.5,614.4z M415.9,624.5c0-0.1,0-0.3,0-0.4
		c1.1,0.1,2.1,0.1,3.2,0.3c1.7,0.2,3.3,0.1,4.8-0.9c0.4-0.3,1.1-0.2,1.9-0.3c0.3-0.6,0.7-1.5,1.1-2.5c0.8,1.7,1,3.6,3.4,3.7
		C425.5,625.9,420.7,626.1,415.9,624.5z M406.4,648.3c-0.1,0-0.2,0.1-0.3,0.2c-0.4-1.6-2.2-2-2.5-3.8c-0.2-1.5-0.6-3-0.9-4.5
		c0.1,0,0.3-0.1,0.5-0.1c0.2,0.4,0.3,0.9,0.5,1.3c0.5,1.2,0.6,2.7,2.2,3.2c0.1,0,0.2,0.3,0.2,0.5
		C406.2,646.1,406.3,647.2,406.4,648.3z M403.6,631.8c0.1,0,0.3,0.1,0.4,0.1c0.4,1.9,0.1,3.7-0.5,5.5c0,0.1-0.4,0.3-0.5,0.3
		c-0.2-0.1-0.3-0.4-0.3-0.5c0.1-0.6,0.2-1.2,0.4-1.8c-0.3-0.1-0.6-0.2-1-0.4C402.5,633.9,403.1,632.9,403.6,631.8z M415.6,641.2
		c8.2-2,8.2-4.6,12.8-0.7C425.6,638.1,420.3,643.2,415.6,641.2C418,642.2,417.8,641.1,415.6,641.2z"/>
	<text transform="matrix(1 0 0 1 452.0005 663.7914)" fill="#FFFFFF" font-family="'ProximaNova-Regular'" font-size="24.6171">YetiJS</text>
</g>
</svg>
