<?xml version="1.0" encoding="utf-8"?>
<!-- Generator: Adobe Illustrator 18.0.0, SVG Export Plug-In . SVG Version: 6.00 Build 0)  -->
<!DOCTYPE svg PUBLIC "-//W3C//DTD SVG 1.1//EN" "http://www.w3.org/Graphics/SVG/1.1/DTD/svg11.dtd">
<svg version="1.1" id="Layer_1" xmlns="http://www.w3.org/2000/svg" xmlns:xlink="http://www.w3.org/1999/xlink" x="0px" y="0px"
	 viewBox="0 0 1210.9 156" enable-background="new 0 0 1210.9 156" xml:space="preserve">
<g id="kXEZHU_1_">
	<g>
		<path fill="#F8F8F8" d="M891.1,0.7c1.8,0,3.7,0,5.5,0c7.5,5.5,15,11,22.5,16.4c0.7,0.5,2.4,0.3,3.1-0.3c2.3-1.8,4.4-4,6.7-5.9
			C937,4.2,946,0.4,956.6,2.8c5,1.1,10,2.6,14.7,4.5c22.8,8.8,45.7,17.7,68.4,26.9c8,3.2,16.1,6.8,23.4,11.3
			c9.2,5.7,17.8,12.6,26.5,19c5.9,4.4,9.7,4.4,14.5-1.4c4.1-5.1,7.4-11,11-16.6c2.7-4.3,5-9.1,8-13.2c4.4-6,10.5-8.9,18-7.2
			c3.4,0.8,6.9,1.8,10.1,3.2c6.8,2.9,13.3,6.9,20.4,9.1c13.2,4.2,26.6,7.5,40,11.1c0,36.8,0,73.5,0,110.3c-1.5,0-3,0.1-4.5,0.1
			c-400.9,0-801.8,0-1202.6,0c-1.5,0-3-0.1-4.5-0.1c0-36.8,0-73.5,0-110.3c1.1-0.2,2.2-0.5,3.4-0.7c18.2-3.8,36.1-8.7,52.6-17.6
			c3.5-1.9,7.3-3.2,11.2-4.4c9.7-2.9,16.4-0.8,22.2,7.5c3.8,5.5,6.5,11.8,10.2,17.5c3.1,4.8,6.6,9.4,10.5,13.5
			c3.1,3.3,6.5,3,10.2,0.3c3.4-2.5,6.8-5.1,10.2-7.7c13.5-10.4,27.5-19.7,44-25c11.1-3.5,22-7.8,32.9-12.1
			c13.4-5.3,26.6-11.2,40.1-16.4c13.6-5.2,25.9-2.5,36.6,7.3c1.8,1.6,3.4,3.4,5.4,4.8c0.7,0.5,2.4,0.7,3.1,0.3
			c7.6-5.4,15-10.9,22.5-16.4c1.8,0,3.7,0,5.5,0c6.7,1.8,13.6,3,20.1,5.4c19.4,7.4,38.6,15.2,57.8,22.9c17,6.8,33.5,14.4,47.8,26.2
			c2.8,2.3,6.2,3.9,9.4,5.6c3,1.6,5.7,1.2,8.7-0.7c12.3-7.6,24.3-15.5,30.6-29.3c0.1-0.2,0.3-0.4,0.4-0.6c2.7-3.8,6.4-6.4,11.1-5.5
			c5.8,1,11.6,2.4,17.1,4.5c5.5,2.1,10.6,2.2,15.9-0.1c3.3-1.5,6.8-2.9,10.3-3.8c9.6-2.5,14.6-0.5,19.8,7.7
			c5.9,9.4,13.3,17.1,22.7,23.2c9.2,6,18,5.9,27.2,0c9.9-6.4,17.6-14.7,23.6-24.7c3.1-5.2,7.6-7.8,13.5-6.9
			c4.8,0.7,9.7,1.9,14.1,3.8c6.6,2.9,12.6,3.3,19.1,0c3.4-1.7,7.3-2.8,11.1-3.6c7.8-1.7,12.7,0.6,16.9,7.3c0.5,0.9,1.1,1.8,1.6,2.7
			c3.5,6.6,8.4,12,14.6,16.2c4.8,3.2,9.5,6.5,14.4,9.4c1.7,1,4.4,1.4,6.1,0.7c4.4-1.9,8.7-4.2,12.5-7.1c9-7.2,18.7-13.4,29.4-17.7
			C827.6,23.9,858.1,9,891.1,0.7z"/>
	</g>
</g>
</svg>