<?xml version="1.0" encoding="utf-8"?>
<!-- Generator: Adobe Illustrator 18.0.0, SVG Export Plug-In . SVG Version: 6.00 Build 0)  -->
<!DOCTYPE svg PUBLIC "-//W3C//DTD SVG 1.1//EN" "http://www.w3.org/Graphics/SVG/1.1/DTD/svg11.dtd">
<svg version="1.1" id="Layer_1" xmlns="http://www.w3.org/2000/svg" xmlns:xlink="http://www.w3.org/1999/xlink" x="0px" y="0px"
	 viewBox="0 0 361.6 354.9" enable-background="new 0 0 361.6 354.9" xml:space="preserve">
<path fill="#48AEE3" d="M151.7,0c22.4,11.5,16.7,20.2,0.4,20.4c-14,0.2-27.1,0-39.5-5c3.8,9,0.7,14.2-15.1,21.1
	C83.2,42.7,75,57.5,65.4,69c-19.5,23.1-43.6,48.7-54,77.9c-2.7,7.7-0.4,14.9,0,20.7C12,177.9,3.2,193.4,0,203.1
	c15.6-2,8.5,22.8,8.5,35.5c0,8.2,0,16.4,0,24.6c4.5-1.6,6.9,0,7,4.7c3.3,16.4,3.5,29.1,17,41c4.9,4.3,25.7,20.7,31.9,16.7
	c-3.6-11.2-7.2-22.5-10.8-33.7c9.1-9.1,16.5,4.3,25.5,5.3c0.3-7.1,0.7-14.2,1-21.3c21.7,13.9,49,32.2,13.3,49.2
	c-8,3.8-30.8,6.4-32.7,16.7c-1.8,9.8,11.6,11.8,20.7,11.3c16.6-1,32.7,3.3,51.9,0.3c10.6-0.8,23-2.2,33.2-4.2
	c23.9-4.8,5.6-33.9,0.6-46c5.2,0,14.7,2.5,17.9-3.6c4.3-8.1,8.8,3.7,14.6,0.6c-4.1,1.3-11.6,24.6-13.2,28.9
	c-6.8,18.1,12.3,20.8,24.7,22.3c25.2,3.1,49,4.5,73.3,2.5c7.9-0.7,19.7-4.4,18.3-12.5c-2.1-11.4-19.4-10.7-27.8-14.6
	c-31.6-14.8-25.2-36.4,5.2-49.2v19.8c13.7-10.4,14.8-10.9,31-5.4c-13.7,7.8-11.3,22.9-17.6,35.2c30.3-10.3,44.8-27.7,51.2-58.4
	c1.9-9,10.5-4.4,10.6-15.2c0.2-11.3-5.8-63.9,6.3-50.5c1.7-15.5-12-32-9.2-48.4c2.3-13.4-16.1-39.7-23.3-49.5
	c-17.8-23.9-55.2-78.9-87.8-81.8c-24.3-2.2-29.4-7.6-40.4-11.6C188.7,9,164,2.2,151.7,0z M280.1,265.1c-0.7-0.3-1.4-0.6-2.1-0.9
	c1.5-10.4,3-20.7,4.5-31.4c2.3,1,4,1.7,5.4,2.3c0.7-0.6,1.3-0.8,1.4-1.1c4-17.2,14.3-33.7,5.2-52.2c-0.7-1.5-1-3.3-1.3-5
	c-0.9-4.9,1.1-8.3,7-11.1c0.8,3.9,2,7.1,2,10.3c0,2.8-2.3,5.8-1.7,8.3c4.9,19.7-1.2,38.1-7,56.3
	C290.8,249.2,284.7,256.9,280.1,265.1z M194,63c-0.1-6,7.5-10.6,17.5-10.7c9.8-0.1,18,4.7,18,10.5c0.1,6.3-8.1,11.7-17.7,11.6
	C201.9,74.3,194,69.3,194,63z M151.5,52.2c10.2-0.1,18.7,4.6,18.9,10.4c0.1,5.9-8,11.3-17.5,11.5c-10.7,0.3-19.5-4.8-19.6-11.3
	C133.2,56.9,141.1,52.3,151.5,52.2z M142.1,114c0-0.9,0.1-1.8,0.1-2.7c6.5,0.5,13.1,0.8,19.6,1.6c10.4,1.3,20.2,0.6,29.4-5.3
	c2.7-1.7,6.9-1.3,11.6-2c1.7-3.8,4.1-9,7-15.4c5,10.2,6.4,21.9,20.6,22.8C200.8,122.4,171.5,123.3,142.1,114z M84.1,258.9
	c-0.6,0.3-1.3,0.7-1.9,1c-2.3-9.6-13.5-12.5-15-23.1c-1.3-9.3-3.8-18.4-5.8-27.6c0.9-0.2,1.8-0.4,2.8-0.7c1,2.7,2,5.4,3.1,8.1
	c3.1,7.4,3.6,16.5,13.3,19.6c0.7,0.2,1.2,1.8,1.3,2.8C82.7,245.7,83.4,252.3,84.1,258.9z M66.9,158.5c0.8,0.3,1.6,0.5,2.4,0.8
	c2.2,11.4,0.8,22.6-3.2,33.5c-0.3,0.9-2.5,2-3.2,1.7c-1-0.4-2.1-2.2-2-3.3c0.5-3.6,1.4-7.1,2.3-11c-2-0.7-3.7-1.3-6.3-2.3
	C60.4,171.1,63.6,164.8,66.9,158.5z M140.4,215.6c50.1-12.3,50.4-28,78.4-4.3C201.5,196.6,169.1,227.8,140.4,215.6
	C154.8,221.7,153.9,214.9,140.4,215.6z"/>
</svg>
